<?xml version="1.0" encoding="UTF-8"?>
<svg width="37px" height="42px" viewBox="0 0 37 42" version="1.1" xmlns="http://www.w3.org/2000/svg" xmlns:xlink="http://www.w3.org/1999/xlink">
    <!-- Generator: Sketch 55.1 (78136) - https://sketchapp.com -->
    <title>Group 19</title>
    <desc>Created with Sketch.</desc>
    <defs>
        <linearGradient x1="0%" y1="50%" x2="100%" y2="50%" id="linearGradient-1">
            <stop stop-color="#FEE100" offset="0%"></stop>
            <stop stop-color="#FACB00" offset="100%"></stop>
        </linearGradient>
    </defs>
    <g id="Page-1" stroke="none" stroke-width="1" fill="none" fill-rule="evenodd">
        <g id="Book-landing_v2" transform="translate(-473.000000, -1930.000000)">
            <g id="CTA" transform="translate(454.000000, 1760.000000)">
                <g id="BTN" transform="translate(0.000000, 149.000000)">
                    <g id="Group-19" transform="translate(20.000000, 22.000000)">
                        <path d="M0.149999991,30.9211182 L0.149999991,5.48111967 C0.149999991,2.54771985 2.54819985,0.150119991 5.47919967,0.150119991 L27.5249984,0.150119991 L27.5249984,4.57151973" id="Stroke-1" stroke="#475257" stroke-width="1.49999991"></path>
                        <path d="M0.149999991,30.9211182 L0.149999991,5.48111967 C0.149999991,2.54771985 2.54819985,0.150119991 5.47919967,0.150119991 L27.5249984,0.150119991 L27.5249984,4.57151973" id="Stroke-1" fill="url(#linearGradient-1)"></path>
                        <path d="M13.8861592,35.3965179 L4.14755975,35.3965179 C1.94915988,35.3965179 0.149759991,33.596518 0.149759991,31.3981181 L0.149759991,30.7945182 C0.149759991,28.5973183 1.94915988,26.7985184 4.14755975,26.7985184 L9.93635941,26.7985184" id="Stroke-3" stroke="#475257" stroke-width="1.49999991" stroke-linecap="round"></path>
                        <path d="M4.85387971,0.409019976 L4.85387971,26.6344184" id="Stroke-5" stroke="#475257" stroke-width="1.49999991"></path>
                        <path d="M4.40213974,31.0757981 L11.8865393,31.0757981" id="Stroke-7" stroke="#475257" stroke-width="1.49999991" stroke-linecap="round"></path>
                        <path d="M23.2552786,11.0554793 L23.2552786,8.75867948 C23.2552786,7.70027954 24.1072786,6.83327959 25.1494785,6.83327959 C26.1910784,6.83327959 27.0424784,7.70027954 27.0424784,8.75867948 L27.0424784,11.0554793" id="Stroke-9" stroke="#475257" stroke-width="1.49999991" stroke-linejoin="round"></path>
                        <path d="M27.0427784,21.6082187 L27.0427784,10.8292194 C27.0427784,9.77021942 27.8953783,8.90261947 28.9369783,8.90261947 C29.9785782,8.90261947 30.8299782,9.77021942 30.8299782,10.8292194 L30.8299782,15.0550191" id="Stroke-11" stroke="#475257" stroke-width="1.49999991" stroke-linecap="round" stroke-linejoin="round"></path>
                        <path d="M23.5370986,39.7840176 C21.0710987,39.5800176 19.5608988,38.7598177 18.2912989,36.3892178 L11.2106993,21.3724187 C10.7738994,20.5654188 11.5406993,19.6816188 12.4412993,19.7416188 L13.3304992,19.8388188 C14.4272991,20.0800188 15.0296991,20.5252188 15.7226991,21.5026187 L19.1498989,25.5982185" id="Stroke-13" stroke="#475257" stroke-width="1.49999991" stroke-linecap="round" stroke-linejoin="round"></path>
                        <path d="M19.4677788,28.0195183 L19.4677788,10.8013194 C19.4677788,9.74171942 20.3197788,8.87591947 21.3607787,8.87591947 C22.4029787,8.87591947 23.2549786,9.74171942 23.2549786,10.8013194 L23.2549786,21.7219187" id="Stroke-15" stroke="#475257" stroke-width="1.49999991" stroke-linecap="round" stroke-linejoin="round"></path>
                        <path d="M30.8302782,22.7343586 L30.8302782,14.5311591 C30.8302782,13.4727592 31.6828781,12.6069592 32.723878,12.6069592 C33.766678,12.6069592 34.6180779,13.4727592 34.6180779,14.5311591 L34.6174779,30.8565582 C34.6174779,35.1411579 32.974678,38.7513577 29.2570783,39.6339576" id="Stroke-17" stroke="#475257" stroke-width="1.49999991" stroke-linecap="round" stroke-linejoin="round"></path>
                    </g>
                </g>
            </g>
        </g>
    </g>
</svg>