<?xml version="1.0" encoding="UTF-8"?>
<svg width="32px" height="33px" viewBox="0 0 32 33" version="1.1" xmlns="http://www.w3.org/2000/svg" xmlns:xlink="http://www.w3.org/1999/xlink">
    <!-- Generator: Sketch 55.1 (78136) - https://sketchapp.com -->
    <title>Group 5</title>
    <desc>Created with Sketch.</desc>
    <defs>
        <linearGradient x1="96.1326542%" y1="59.8534942%" x2="3.72055045%" y2="35.4693983%" id="linearGradient-1">
            <stop stop-color="#8731E8" offset="0%"></stop>
            <stop stop-color="#4528DC" offset="100%"></stop>
        </linearGradient>
    </defs>
    <g id="Page-1" stroke="none" stroke-width="1" fill="none" fill-rule="evenodd">
        <g id="Book-landing_v2" transform="translate(-819.000000, -1934.000000)">
            <g id="CTA" transform="translate(454.000000, 1760.000000)">
                <g id="BTN-Copy-2" transform="translate(347.000000, 149.000000)">
                    <g id="Group-5" transform="translate(19.000000, 26.000000)">
                        <path d="M29.6576982,0.149759991 L10.7684994,3.06455982 L11,10 C11,10.9236717 17.1666667,9.92367171 29.5,7 L29.6576982,0.149759991 Z" id="Stroke-1" fill="url(#linearGradient-1)"></path>
                        <path d="M26.6576984,19.3851588 C25.7648985,19.0509589 24.7382985,18.9315589 23.6792986,19.0899589 C20.7734988,19.5225588 18.7142989,21.8739587 19.0826989,24.3441585 C19.4492988,26.8125584 22.1036987,28.4637583 25.0094985,28.0311583 C27.9164983,27.5985584 29.6582982,25.4415585 29.6582982,22.7775586 L29.6576982,0.149759991 L10.7684994,3.06455982 L10.7684994,25.6923585 C10.7684994,28.3557583 9.02609946,30.5133582 6.11969964,30.9459582 C3.21389981,31.3779581 0.559499967,29.7267582 0.192899989,27.2577584 C-0.17609999,24.7887585 1.88369989,22.4367587 4.78949971,22.0041587 C5.86649965,21.8445587 6.90689959,21.9705587 7.81169953,22.3173587" id="Stroke-1" stroke="#475257" stroke-width="1.49999991" stroke-linecap="round" stroke-linejoin="round"></path>
                        <path d="M10.7699994,9.89471941 L29.6147982,7.24511957" id="Stroke-3" stroke="#475257" stroke-width="1.49999991"></path>
                    </g>
                </g>
            </g>
        </g>
    </g>
</svg>